<svg xmlns="http://www.w3.org/2000/svg" viewBox="0 0 233.94693 102.22937"><title>Bookshelf-1</title><g id="Layer_2" data-name="Layer 2"><g id="Layer_1-2" data-name="Layer 1"><path d="M97.95023,21.50513c0,1.553-.01368,1.553-.01368,3.1062,0,1.553.17884,1.553.17884,3.106,0,1.55322.01318,1.55322.01318,3.1062,0,.13281.30176.23217.78516.23217s.83606-.09936.83606-.23217c0-1.55347.043-1.55347.043-3.10669s.05273-1.55323.05273-3.10669c0-1.553-.0719-1.553-.0719-3.1062,0-1.553-.00037-1.553-.00037-3.106,0-1.55322-.08032-1.55322-.08032-3.1062,0-.13281-.29577-.24805-.77917-.24805s-.98487.11524-.98487.24805c0,1.55322.06739,1.55322.06739,3.10669C97.99625,19.95166,97.95023,19.95166,97.95023,21.50513Z"/><path d="M154.24893,36.15015c-.29443-1.52491-.365-1.51123-.65942-3.03614s-.2948-1.5249-.58911-3.0498-.37329-1.50977-.66773-3.03467c-.02527-.13037-.3374-.18725-.812-.0957-.47461.09179-.94519.2998-.92.43017.29455,1.52515.36059,1.51245.65515,3.0376s.24914,1.53394.54358,3.05908c.29443,1.52491.28112,1.52759.57556,3.05249s.46985,1.491.76428,3.01587.30737,1.52246.60181,3.04737c.02514.13037.34033.17065.81494.07885.47473-.09155.802-.25586.77685-.38623-.29455-1.52514-.25232-1.53344-.54675-3.05859S154.54337,37.67529,154.24893,36.15015Z"/><path d="M159.654,69.105c-.1416-.73364-.142-.73364-.28369-1.46728s-.22046-.71851-.36206-1.45215c-.01221-.06275-.313-.061-.7876.03051a2.38712,2.38712,0,0,0-.94446.304c.14173.73389.20789.721.34949,1.45483s.09644.74244.238,1.47632c.14172.73364.12842.73633.27,1.47.1416.73389.31714.7.45874,1.4336s.15478.7312.29638,1.46484c.01209.06274.31751.05249.79212-.03931.47473-.09155.81177-.20532.79968-.26806-.1416-.73389-.09949-.742-.24121-1.47583-.1416-.73365-.08984-.74366-.23144-1.47754C159.86624,69.8252,159.79556,69.83887,159.654,69.105Z"/><polygon points="112.578 34.474 112.513 36.175 112.457 37.874 112.478 39.571 112.489 41.269 112.397 42.967 112.491 44.94 112.58 46.91 112.529 48.779 112.633 50.642 112.717 52.502 112.684 54.42 112.766 56.342 112.692 58.259 112.596 60.176 112.524 62.093 112.542 64.01 112.455 65.706 112.579 67.402 112.484 69.098 112.402 70.791 112.476 72.497 115.122 72.734 115.245 71.275 115.433 69.785 115.379 68.283 115.287 66.641 115.384 64.992 115.36 63.347 115.288 61.705 115.179 60.063 115.126 58.42 115.135 56.716 115.411 55.026 115.424 53.324 115.37 51.712 115.211 50.103 115.259 48.489 115.18 46.88 115.116 45.269 115.101 43.437 115.18 41.608 115.152 39.778 115.198 37.949 115.358 36.123 115.362 34.294 115.415 32.466 115.407 30.638 115.33 29.153 115.041 27.678 115.365 26.289 115.365 24.883 115.34 23.311 115.305 21.735 115.166 20.129 112.48 19.877 112.429 21.71 112.483 23.536 112.493 25.36 112.565 27.188 112.422 29.488 112.342 31.134 112.523 32.774 112.578 34.474"/><path d="M233.64005,99.64258c.0625-.87744.11328-2.50171.15649-4.81006.03638-3.26294.0874-7.85352.15039-13.5127-6.66235-.04834-14.813-.10791-24.02246-.1748A5.28166,5.28166,0,0,0,212.089,79.5459a14.74257,14.74257,0,0,0,1.87939-3.05127,12.05511,12.05511,0,0,0,.82862-2.66577,14.08157,14.08157,0,0,0,.19726-1.57935q.04981-.74084.10376-1.54223c.16187-2.13428.34693-4.57813.55-7.25782.25586-3.10547.53443-6.48242.82813-10.04492a5.89381,5.89381,0,0,0,.75708-.40527,58.75449,58.75449,0,0,0,6.13208-4.449c-3.08789.21-5.92115.53028-7.571.76978-.45483.06152-.71655.11328-.98169.16064-.26343.04663-.49536.08765-.69018.12232a2.91461,2.91461,0,0,1-.6897.07983q-.308-.11022-.58594-.20947a2.34709,2.34709,0,0,1-.46-.17847,1.40493,1.40493,0,0,1-.36377-.28076c-.12768-.15137-.12451-.231-.17554-.25781.13843-.21656-.01757-.19971-.12622-.29077a.21028.21028,0,0,1-.0476-.35987.85876.85876,0,0,0,.07006-.07007l.093-.13842q.09118-.137.17847-.26758.17175-.26222.32715-.49854c.20141-.31933.38183-.60522.54419-.8623.31689-.51856.5459-.93115.71167-1.27026a5.02017,5.02017,0,0,0,.332-.83228,8.91642,8.91642,0,0,0,.28369-1.10767c.1167-.625.1355-1.10864.34131-1.96435a33.585,33.585,0,0,1,1.5791-4.51929c-.35352.18652-.92993.491-1.57764.83276a1.43056,1.43056,0,0,0-.17212.11158c-2.74194,2.04663-3.685,2.824-4.30542,3.2959-.30346.23169-.47436.35473-.55151.39892a.53641.53641,0,0,1-.23828.08179c-.2959.0293-.70142-.10767-3.562,1.42041a.42265.42265,0,0,0-.17871.19287.30957.30957,0,0,0-.02271.29248c.12183.52075-.12012.60669-.20141.4563-.11109-.13208-.1084-.47144-.16407-.38672l-.13257.1731c-.09252.01806-.30957-.21827-.24389-.34253a3.18219,3.18219,0,0,1,.18945-.26636,1.07585,1.07585,0,0,0-.04492-.375.60815.60815,0,0,0-.34473-.37036c-.29712-.14112-.66675-.1543-.74-.54151l-.57031-3.01635-.56543-.11084.1145-.22242q-.356-.97191-.66333-1.81274-.3545-1.00086-.65429-1.84717-.58778-1.73986-.96387-2.85229a24.02427,24.02427,0,0,1-2.66236,4.88427,2.95864,2.95864,0,0,0-.23095.54126c-.04395.157-.09058.37891-.15332.7146-.12036.67237-.32178,1.79737-.67578,3.77393a.39288.39288,0,0,1-.11744.21582l-.3999.3728c-.10425.09742-.22265.2085-.34839.32642l-.19287.18188a1.1382,1.1382,0,0,1-.1477.07251.43512.43512,0,0,1-.57666-.1167c-.00782-.00561-.009-.0039-.009-.0039a.1125.1125,0,0,1-.09936.11108.37667.37667,0,0,1-.11475.00342l-.07251-.01074-.04321-.01-.12964-.05786c-.69775-.31519-1.50659-.71631-2.40088-1.18189-.90918-.47363-1.84082-.97705-2.94775-1.58691-1.68823-.93579-3.4812-1.92969-5.333-2.95654,1.37769,5.1958,2.6333,9.98413,2.82227,10.51025q-.29883.041-.58936.08081-.72216.08532-1.41748.16772-1.13159.13038-2.20923.25489-1.05908.13768-2.05517.26709c.757,1.04712,1.44629,1.96557,2.04174,2.70947q.21717.2655.42493.51953.16809.18384.32825.35889.32409.3468.63086.64233c.17431.168.34192.31543.50708.45606-.58557-.00635-1.1753-.0127-1.75794-.0188.38269,5.644.75525,11.1394,1.09973,16.22046.04908.5852.05347,1.05761.14344,1.73a12.564,12.564,0,0,0,.32238,1.85766,13.56235,13.56235,0,0,0,1.3191,3.37989,13.813,13.813,0,0,0,4.41284,4.8479c.02.01367.04089.02343.061.03686-8.47827-.08325-17.47021-.18872-26.73852-.32666q.68426-.12268,1.37109-.24536c1.26355-.22656,1.58545-.99609-1.9414-1.11523a36.76655,36.76655,0,0,0-4.80811.09545c-.58484.05591-1.09448.12549-1.57849.19947-.39172.06176-.7638.12011-1.1543.18164-.15527.02685-.369.05664-.48474-.13306a.58859.58859,0,0,1-.04346-.39868l.01148-.094a.469.469,0,0,0,.00183-.15943q-.01758-.28087-.03565-.5686c-.04895-.76782-.10656-1.57373-.20813-2.42066-.12426-1.03564-1.303-8.39453-1.42236-9.19482-.21728-1.45606-.2395-3.01733-.49682-4.63086,0,0-.45093-1.84058-1.73108-9.15088-.25855-1.47632-.359-3.04126-.64612-4.62353-.26807-1.47876-.76538-2.95288-1.05945-4.52686-.27673-1.4812-.27429-3.07812-.57483-4.646-.51294-2.67553-1.81738-8.56762-1.81738-8.56762-.20093-1.36035-.42688-2.73267-.59912-4.06568-.18225-1.41015-.25367-2.78466-.43286-4.06543,0,0-.00074-.0039-.05872-.36059l-.01953-.12891c-.01489-.08545.07715-.24145.29272-.23877,1.71241-.28,4.56409-.74634,9.17957-1.501a.25859.25859,0,0,1,.37231.21972c.11817.71192.25122,1.51367.39673,2.39038.35071,2.12354.76148,4.61011,1.2085,7.31641.8938,5.41211,1.93237,11.70166,2.92566,17.71631,2.00085,12.02685,3.81872,22.95361,3.92028,23.564.37073,1.84522.71265,3.34278,1.02405,4.52784.15564.59228.30371,1.10668.444,1.54711q.11078.3285.20435.60572c.05871.13208.08484.12817.10547.21509.07873.29638-.145.56225-.19654.73193-.06433.15991.07691.40259.59778.2998a1.27934,1.27934,0,0,0,.79614-.66479,1.59646,1.59646,0,0,0,.17676-.751q.0174-.25341.03711-.53955c.04065-.75781.04431-1.68872.009-2.75757-.07043-2.13769-.296-4.82739-.68969-7.79,0,0-.75574-4.668-2.13953-13.21484-.69922-4.27222-1.55725-9.51392-2.55786-15.62646q-.75549-4.58386-1.61682-9.80811-.43176-2.60889-.88867-5.37012-.23054-1.3905-.46741-2.81885a8.877,8.877,0,0,0-.27759-1.36743,2.83564,2.83564,0,0,0-3.13733-1.82129c-1.30139.21851-3.26574.54834-5.592.939-1.07385.17993-2.23108.374-3.43713.57617q-.48743.0813-.98389.16455c-.3208.05176-.65246.10181-.96338.17969.00684-.43555.01343-.88574.01978-1.355.01733-1.94995.03723-4.19873.0603-6.79639.00464-3.09961.00977-6.61523.0155-10.60742-3.76733.021-10.20434.0564-17.84192.09863-.82934.00806-1.60949.01563-2.24365.02173-.79846.01538-1.41284.0271-1.72217.033.02393,1.74854.05262,3.60571.08216,3.96338.036.66309.06506,1.19458.08752,1.60864.05493.82739.098,1.18408.098,1.18408.01038,1.24707-.2113,2.51954-.20105,3.80469.0011.13526.02027.27124.02955.40674-.05542.00171-.10621-.00439-.1626-.001q-2.94067.011-5.984.02222-2.95221.01281-5.99671.02612-1.5216.00733-3.06469.01441c-.27393.00757-.58716.00464-.89746.01416q-.0022-.72-.00464-1.44361a2.82036,2.82036,0,0,0-1.06055-2.21191,2.77465,2.77465,0,0,0-1.12036-.53442,5.89535,5.89535,0,0,0-1.35376-.074q-.75952.00292-1.52466.00635-1.44121.00659-2.90368.01343-1.46631.00732-2.95313.0144c-.33679.00781-.67981.00464-1.01294.0249-.0011-1.303-.00232-2.62133-.00354-3.96338-4.26379.01368-12.8114.041-21.84289.06983.05236,9.1875.11291,19.79639.1781,31.23559-.392.02271-.78235.04541-1.15064.06641-.39941.02881-.78137.0564-1.14331.08252-.604.0542-1.14111.10254-1.5946.14331a11.91211,11.91211,0,0,1-1.58338.09815c-7.271-2.01075-6.8186-.3335-8.43945-.6084-11.593-1.96582-4.39673.384-15.72974-.44507a.89673.89673,0,0,0-.16784.0039c-9.73377,1.16846-1.58362.26978-11.38318-.15209a1.01119,1.01119,0,0,0-.73975.30615c-1.062,1.01318-1.42285-.21875-2.25268-.13379a17.09824,17.09824,0,0,1-3.00989.19555c-2.35828-1-1.98474.49512-3.16553.38038l-4.59814-.44776-.43848.498-.2616-.18091a3.96843,3.96843,0,0,0-1.17773.15357,3.64561,3.64561,0,0,0-1.056.5144,3.55888,3.55888,0,0,0-1.28491,1.69311,4.63449,4.63449,0,0,0-.21436,1.74781l-.00586,1.335c-.014,1.66723-.052,2.89453-.1012,3.80981a13.52786,13.52786,0,0,1-.32763,2.76441,2.83793,2.83793,0,0,0,.01672,1.39209c.07178.457.17493,1.113.3291,2.09472a4.69643,4.69643,0,0,0,.57886,1.92383,3.08271,3.08271,0,0,0,.39.5044Q11.90586,52.057,9.38419,52.04c-.03418,5.0979-.06836,10.21289-.10254,15.29443-.324-.00171-.656-.00366-1-.0061-.5448-.00391-1.49634-.03882-2.66822-.08374-.58606-.02222-1.22705-.04639-1.8999-.072-1.16968-.0232-2.39453-.04712-3.634-.07178-.02661,1.85791-.054,3.7561-.07862,5.48511-.00561,1.24292.0149,2.3645.07874,3.21362.077,1.0144.14417,1.89868.20276,2.67065.05981,1.23047.11084,2.28174.15454,3.18165,1.21118-.0586,2.13135-.103,2.87378-.13916-.06567,9.36767-.10034,12.20312-.02429,20.46777,1.69177-.0166,2.73767-.0271,3.71386-.03662,23.26722-.59156,23.36853-.64942,28.97522-.541,100.37073,1.939,81.19532-.16284,111.35059-.00488,0,0,12.56763-.16943,39.89429-.02612,19.448.1018,42.746-.68042,46.19775-1.42359.05164.39844.09815.53394.13989.39405a2.966,2.966,0,0,0,.06128-.44336C233.91934,99.81226,233.93741,99.72632,233.64005,99.64258ZM184.99429,51.83521q-.19866-.35632-.42627-.76465l-.23877-.4187-.05835-.10254-.01318-.03272-.02527-.064q-.07233-.19373-.15979-.429c.103.00684.21045.01367.32251.02124l.13709.011.06262.00537.02991.00293.16906-.00879q.86463-.052,1.79639-.1084,1.59485-.11426,3.30786-.23681-.74853-2.89308-1.593-6.16016-.1527-.5907-.30932-1.19727l-.02051-.08227v-.00708l-.00024-.01367.00024-.02369a.13859.13859,0,0,1,.00855-.054l.06274.05469.00781.00854c.01416.0083-.0271-.01367.03223.01953l.31372.17432q.62915.349,1.26758.70312,3.31384,1.827,6.80346,3.751,1.50477-3.434,3.05835-6.97876l.594-1.36182.14355-.32983.00025-.00317.00073-.00782.01245-.0581a.10972.10972,0,0,1,.02734.03271l.01026.01636c.00537.01318-.0044-.01684.01367.03247l.126.35718.50415,1.42773c.88208,2.50269,1.762,4.999,2.6333,7.47168q3.25524-2.05224,6.44092-4.061l.59423-.3772.178-.11474.02979-.02295.13183-.09913.32618-.23852q-.045.18054-.08887.3562l-.05884.2207q-.2135.6255-.4231,1.24048c-.834,2.41651-1.63818,4.7461-2.40429,6.96582q2.42907-.12414,4.7229-.24145,1.26708-.07691,2.45117-.14868c.60449-.05957,1.16357-.11475,1.6687-.16455-.25073.22387-.48218.43041-.69214.61791q-.18786.167-.3562.31641-.09118.08057-.17651.1565l-.0874.07763-.18775.15454q-.80035.65442-1.36316,1.12525c-8.96777-.09522-18.98791-.20191-28.72717-.30518C185.41641,52.62329,185.227,52.26,184.99429,51.83521Zm4.52222,24.41992a3.01965,3.01965,0,0,1-.45313-.74976l-.18518-.16308a3.79868,3.79868,0,0,1-.51147-.54419,7.52509,7.52509,0,0,1-1.37354-2.71656,9.292,9.292,0,0,1-.25451-2.89111c.04248-.781.06933-1.27783.07446-1.36939-.05127-.72949-.44629-1.44482-.48877-2.19165A24.24813,24.24813,0,0,1,186.338,62.271c.03052-.36548.06617-.63648.09436-.81812.03138-.18091.04724-.27319.04847-.27978-.01978-.73462-.39112-1.4646-.39893-2.21094-.00781-.73657.26318-1.48316.26843-2.22974l.001-.11938a.10887.10887,0,0,0-.01331-.03833l-.06225-.10059c-.04834-.07715-.09973-.19507-.07227-.23852l.014.00439c.14709.04932.2356.1001.29077.1106a.08248.08248,0,0,0,.07459-.01954c.03515-.01-.02491-.02368.09314-.042q.13971-.02709.28247-.0686c3.2323-.94092,2.81262-.009,4.72131.17065,5.218.49121,1.30835-.95068,7.17456-.19091,5.32959.69042,6.54761.38476,7.83862.06518a10.779,10.779,0,0,1,2.51465-.36743c.60279-.022,1.34082-.01441,2.2793.03857q.35193.02307.74292.04834.19519.015.40137.031l.20849.01733a.28217.28217,0,0,1,.0857.01856.65619.65619,0,0,1,.34765.19433,2.03642,2.03642,0,0,1-.17676.27857.82182.82182,0,0,1-.092.09448l-.0083.00684-.01587.113-.03051.2295q-.02748.23181-.05542.47c-.06861.63525-.11817,1.30371-.1521,1.98047-.06812,1.354-.075,2.74145-.05274,3.96435a21.90889,21.90889,0,0,0,.22486,3.78076,10.41581,10.41581,0,0,1-.48511,2.40161,8.68728,8.68728,0,0,0-.20948,1.58277c-.01855.33374-.01806.74316-.01464,1.16284-.00122.38574.01806.83032-.02246,1.34619a7.07358,7.07358,0,0,1-.66968,1.68726,7.75,7.75,0,0,1-1.032,1.44922,3.72867,3.72867,0,0,1-.90918.57226c-.21753.10083-.36011.167-.50806.23584-.291.15112-.46.46314-1.312,1.28076a9.2284,9.2284,0,0,1-3.33008,1.90991,1.70335,1.70335,0,0,0-.6543.30738h-.02807c.04174-.77-.90039-1.1294-2.47095-1.26123-.6167-.052-1.32984-.06885-2.11719-.0625-.39355.0083-.80566.01709-1.23389.02612-.3728-.00293-.75952-.0061-1.15771-.00928a10.7017,10.7017,0,0,1-4.95239-1.48535A7.57878,7.57878,0,0,1,189.51651,76.25513ZM147.01688,50.2644c.88708,5.11744,1.80468,10.40992,2.73779,15.79248q.7066,4.03564,1.42322,8.12818.35961,2.04345.7207,4.09424l.181,1.02514.12341.71485a4.33437,4.33437,0,0,0,.11585.46216q-5.081-.08241-9.74121-.15577l-.00379-.0039a1.07581,1.07581,0,0,0-.11548-.03052c.43555-1.79053.89844-13.322,1.20166-26.66577.02759-1.21118-.25647-2.48316-.22851-3.78443.02624-1.21679.23144-2.46435.25806-3.76147.025-1.221-.17542-2.488-.14991-3.781.02393-1.22412.46741-2.46167.49182-3.75146.00281-.14966-.30749-5.19019-.28137-7.43335C144.76663,37.07324,145.86539,43.51416,147.01688,50.2644Zm-21.22181-40.626.605-.0105.62232-.07129.78332.14258.56043.08032.55835-.18091.57934-.05566.57886.06518.57862.05567.578-.02027.57837-.011.57824.09155.67176-.09375.671-.08887.63623.05054.63452-.10351.63354-.08472.653.03345.65454-.082.65271.074.65283.09643.65283.07178.65308-.01855.57739.0874.57776-.12427.41528.06861c-.00744.20044-.0177.40112-.017.60131.00488,1.26123.29785,2.51319.30334,3.7605.00549,1.262-.28674,2.51929-.28064,3.76489.00611,1.26465.34668,2.51636.35352,3.76221.00268.51343-.41333,6.57935-.40711,7.53687.00818,1.26855.34693,2.51855.35584,3.759.009,1.27026-.218,2.52954-.20825,3.76782.01,1.27222.38232,2.51978.39306,3.75537.011,1.27442-.31079,2.53589-.29907,3.76856.01221,1.27734.2467,2.52612.25964,3.75513.01355,1.281-.28088,2.54272-.26648,3.76733.015,1.2854.43457,2.5271.45044,3.74634a51.07883,51.07883,0,0,0-.27685,7.53393c.02234,1.31592.43945,2.55445.46326,3.74561.02673,1.33838-.2616,2.61084-.23292,3.78027.03211,1.31348.0658,2.479.10047,3.51831l-.61426-.021-1.32446.03418-1.22925.18945-1.343-.07788-1.342-.06568-1.34143-.04882-1.3418.05883-1.566.14746-1.00634-.14331-1.00745-.03637-1.22131-.05933-1.22168.00147-1.22071.07666-.54272-.01709c.196-2.17188.34436-4.72022.41357-7.49488,0,0-.022-19.91479-.0542-49.22265q-.0044-1.552-.009-3.13526a3.23667,3.23667,0,0,0-.06726-.73217Q125.78952,11.52147,125.79507,9.63843Zm11.43177,70.27685c-1.58069-.05444-3.485-.12036-5.68311-.196q-1.64886-.04469-3.51428-.09473-.932-.02269-1.91553-.04639-.29332-.01134-.59424-.0227l-.409-.02271q.01776-.34386.03625-.70117.01758-.87012.03589-1.772l.00427-.2334c.00684-.05127.0138-.10156.02063-.15356l.34619.03149,1.02246.05493,1.37977-.04638,1.3789-.0918,1.37927-.05737,1.30616.05517,1.30468.08789,1.3053-.00317,1.30383.11182,1.30494.01782,1.30359.05688,1.67639-.311,1.06128-.00757.64917.04053a31.21579,31.21579,0,0,0,.29492,3.635C141.50577,80.13574,139.80753,80.02417,137.22684,79.91528Zm3.70337-76.5039.0028.01123.01648.00415.018.00512c.00683-.00512.01465.134.02307.19385l.12292.94165a13.76174,13.76174,0,0,1,.18055,1.87793c.00036.0896-.00623.1792-.00769.2688l-.26929.02857-.55908.09155-.56165-.09717-.56018.02393-.55908.07226-.55908.10913-.55982.05347-.58032-.00952-.5752-.27612-.57983-.01343-.549.0542-.54773.15893-.54993-.04736-.548.0791-.54858.06372-.62366.01441-.62293-.07837-.62317.02832-.62292-.04615-.62183-.16088-.6228-.00391-.62256-.05249-.62243.00781-.50562.07715-.50232.28906-.473-.32422h-.47913l-.43383.02027c.00329-1.11328.00659-2.22266.00976-3.34375C130.78384,3.42554,135.83853,3.41846,140.93021,3.41138ZM106.75552,20.3042c.04639-1.65015.19629-3.239.22486-4.74024,0,0-.00061-.258-.00147-.74267a1.3428,1.3428,0,0,1,.007-.22583.223.223,0,0,1,.23413-.15991c1.95471-.00367,4.74915-.009,8.10755-.01538,1.80737-.00318,3.76623-.0066,5.83984-.0105q.53723-.00147,1.08862-.00269a.25384.25384,0,0,1,.29517.18042,1.33812,1.33812,0,0,1,.00769.19336l.00159.592q.00145.83424.00317,1.68433c.00867,4.532.01807,9.37451.02734,14.23071.05542,19.42554.11133,39.074.11389,39.9668.07007,2.18384.16736,3.96411.28467,5.38013.05872.708.12232,1.325.19007,1.85571q.05676.39771.10449.73266l.05444.31885a.62556.62556,0,0,1,.04.11084.552.552,0,0,1-.076.38233q-2.25128-.03224-4.37537-.06153c-5.27746-.83008-6.67919-.46118-9.72094-.63208q-.605-.04284-1.23938-.08764c-.18958-.01709-.47425-.03516-.59314-.05371l-.17261-.05591a.25391.25391,0,0,1-.19165-.23755.5071.5071,0,0,1,.02856-.1604l.01807-.07007.00781-.03247.00708-.15942c.04346-1.21021.06031-9.86377.0708-10.80347.01892-1.70923.24756-3.50269.25232-5.3999,0,0-.1499-2.19336-.24109-10.81055-.01843-1.74024.13331-3.55249.10376-5.41943-.02746-1.74463-.282-3.52686-.3197-5.38575-.03552-1.749.22278-3.57861.17761-5.43188-.07714-3.16187-.4198-10.15772-.4198-10.15772C106.71475,23.479,106.71182,21.864,106.75552,20.3042ZM94.86246,78.75464c.00354-.26758.00708-.53784.01074-.821.01367-.34375.02808-.70288.04346-1.09033.09057-1.552.309-3.24243.38012-5.14477.04346-1.16285.06031-9.48023.07068-10.3833.01892-1.64283.24768-3.36646.25232-5.19,0,0-.1499-2.10815-.241-10.39013-.01855-1.67261.13318-3.41455.10376-5.209-.02758-1.67675-.282-3.38965-.31982-5.17627-.03552-1.68115.2229-3.43945.17773-5.2207-.07714-3.03882-.41992-9.76269-.41992-9.76269.02-1.53467.01709-3.08667.06079-4.58619.04627-1.58593.19629-3.11279.22474-4.55566,0,0-.00062-.22217-.00147-.63843a.92132.92132,0,0,1,.01038-.2168.22308.22308,0,0,1,.22973-.14941c1.79615-.00366,4.36377-.009,7.44971-.01538.09534-.00171.21216-.01392.28357.07251.08118.07715.059.19629.06311.30029q.00257,1.30554.00537,2.69605c.00391,1.99316.00793,4.09643.01209,6.27417.00878,4.35571.01818,9.01.02746,13.67749.05542,18.67041.11133,37.55493.11377,38.41308.07007,2.09888.16748,3.80982.28467,5.17066.05871.68066.12231,1.27368.19018,1.78393a6.55479,6.55479,0,0,0,.19288,1.07788.44061.44061,0,0,1-.00684.11182c-2.12317-.02466-4.12207-.04639-6.00855-.06567-.343-.04541-.673-.08643-.97839-.11988-.49817-.0542-.95007-.09375-1.368-.12255l-.52515-.06446a.4292.4292,0,0,1-.29382-.26806A1.35455,1.35455,0,0,1,94.86246,78.75464ZM72.29166,52.13208a11.261,11.261,0,0,0,.74609-2.41968c.00708.82617.01416,1.66114.02124,2.49268-.16687.00244-.323.00488-.49487.00781.01733-.01123.04406-.021.06067-.03223C72.52982,52.16406,72.41348,52.148,72.29166,52.13208Zm4.1062,7.00757c.72485-.04663,1.24219-.1084,2.61023-.1084,2.19909,0,2.19909.105,4.39807.105,2.19873,0,2.19873.03711,4.39746.03711,1.892,0,2.16272-.03272,3.60059-.042.003,1.18139.00585,2.28882.00854,3.31006-1.44641.00756-1.71338.03564-3.60986.03564-2.1991,0-2.1991-.03052-4.3982-.03052-2.19873,0-2.19873.16577-4.39746.16577-1.41235,0-1.92163.00367-2.68506.00611.05433-.90918.10462-1.8374.10682-2.79224C76.429,59.82617,76.4169,59.62451,76.39786,59.13965Zm15.00146-1.87378c-1.43359.00781-1.70642.03564-3.59643.03564-2.1991,0-2.1991-.03051-4.3982-.03051-2.19873,0-2.19873.16577-4.39746.16577-1.40014,0-1.91174.00366-2.6643.0061-.04895-1.78857-.10938-4.76611-.155-9.52051-.01844-1.91626.1333-3.91162.10376-5.96753-.02759-1.92114-.282-3.88354-.31983-5.93042-.03552-1.92578.2229-3.94043.17774-5.981-.00855-.38355-.02076-.82471-.03479-1.29468.8861-.04688,1.35986-.12378,2.89331-.12378,2.19909,0,2.19909.105,4.39807.105,2.19873,0,2.19873.03711,4.39746.03711,1.85449,0,2.15723-.03125,3.522-.04126C91.3511,38.59668,91.37881,49.27979,91.39932,57.26587ZM77.53653,79.34155q-.35688-.02087-.7229-.04248l-.36853-.02539a1.22127,1.22127,0,0,1-.13-.0271,2.67246,2.67246,0,0,1-.37622-.11816q.04725-.18714.09693-.38526l.021-.07617a1.46131,1.46131,0,0,0,.0188-.24927q.015-.37023.03028-.74975c.04345-1.33252.0603-10.86133.0708-11.89575.00463-.47632.02307-.959.04773-1.44776.81811-.04712,1.31408-.11767,2.78369-.11767,2.19909,0,2.19909.105,4.39807.105,2.19873,0,2.19873.03711,4.39746.03686,1.89831,0,2.16333-.03271,3.614-.04175.00806,3.11841.01319,5.10132.01392,5.38013a59.30178,59.30178,0,0,0,.80371,9.9751c-2.53894-.02124-4.83679-.03687-6.92847-.04785C81.768,79.2666,80.23843,79.47949,77.53653,79.34155Zm13.7843-52.48144c-1.36072.00854-1.6654.03515-3.51794.03515-2.1991,0-2.1991-.03051-4.3982-.03051-2.19873,0-2.19873.16577-4.39746.16577-1.56567,0-2.0249.00439-2.94848.00708-.03955-1.1272-.08545-2.325-.13062-3.45435,1.02088-.04492,1.438-.13379,3.08-.13379,2.19909,0,2.19909.105,4.39807.105,2.19873,0,2.19873.03711,4.39746.03711,1.848,0,2.15588-.031,3.50854-.04126C91.31509,24.63623,91.318,25.7417,91.32083,26.86011ZM75.79044,13.60425c.04626-1.8169.19628-3.56641.22473-5.21948,0,0,0-.07984-.00061-2.01636.59057-.00073,4.19311-.00562,15.25329-.02027.0094,3.64673.02356,9.11524.03968,15.33667-1.34888.00855-1.65845.03492-3.50464.03492-2.1991,0-2.1991-.03052-4.3982-.03052-2.19873,0-2.19873.16577-4.39746.16577-1.67627,0-2.08008.00513-3.14917.00757-.0719-1.73364-.12829-3.00415-.12829-3.00415C75.74966,17.1001,75.74673,15.322,75.79044,13.60425ZM15.865,37.58032a1.22022,1.22022,0,0,1,.60913-.9248,1.23364,1.23364,0,0,1,.55029-.15332l1.28186-.00879,2.65137-.01172q2.64863-.01282,5.2815-.02588c3.508-.02075,6.98437-.04126,10.39843-.06128,6.82788-.05371,13.40589-.10547,19.48633-.15307,3.04029-.03028,5.95606-.05933,8.71655-.08667q2.07037-.02308,4.02027-.04493.97412-.01135,1.91553-.0227.36365-.01171.71411-.02271c.07019,4.26172.12976,7.88013.17553,10.66284.04395,2.35987.08655,4.17066.12671,5.34839-5.52368-.54858-27.79028-.7312-53.55322-.71972l-1.22388-.00342a1.19188,1.19188,0,0,1-.515-.13745A1.17819,1.17819,0,0,1,15.903,50.353a.91127.91127,0,0,1-.0122-.13745c-.00562-.03736-.00183-.19751-.00318-.29029l-.00109-.65258-.00232-1.30787q-.00257-1.30994-.00538-2.62622-.00694-2.63268-.01416-5.28418l-.00415-1.32519-.00219-.66333-.0011-.33154ZM12.21756,63.28174a16.96672,16.96672,0,0,0,.50561-2.82935,16.52261,16.52261,0,0,0-.05554-4.62768l-.05725-.20386c-.01965-.0376-.03943-.03076-.05932-.05078a.48315.48315,0,0,1-.11365-.11182.88017.88017,0,0,1-.13013-.49512,2.847,2.847,0,0,1,.52539.04346l.08057.01416a1.253,1.253,0,0,0,.19189.0166l.59729.04029c.42.0332.88513.06982,1.40015.11059,16.76819,1.43091,6.71838-1.41821,26.15674.20069A109.51713,109.51713,0,0,0,58.701,54.75781c3.26062-.07275,3.173.83789,10.22217.10694.10388-.01075,1.02929.008,2.07116.03686.26038.00781.52808.01563.79224.02319.09668.00855.19214.01709.2821.02515.15931.01685.28431.03394.35852.04859a3.18764,3.18764,0,0,1-.03772.45629l-.04211.09571a.2544.2544,0,0,0-.041.13965c-.0288.18139-.05493.34619-.079.49707-.05579.30053-.1012.54516-.14014.75415-.08411.41674-.14771.68872-.179.98169a14.97121,14.97121,0,0,0,.2959,3.32666c.41956,2.98584.69226,5.17309.90271,6.40039-2.33887-.99292-10.5874-.42774-19.20508-.17627a48.63144,48.63144,0,0,1-6.734-.09131s-.25892.04443-.73646.10327c-23.83776-1.08447-22.38769-.53711-28.63061-.26758-.30859-.04638-.61816-.0852-.93066-.10229-1.11548-.06153-2.27417.17993-3.40088.104l-.35157-.02417-.16894-.012-.02808-.01148-.09033-.03955a.22579.22579,0,0,0-.15076-.02026c-.01281-.042-.05066-.06128-.12707-.11133-.05872-.06567-.11023-.04492-.155-.24072L12.28226,66.02c-.06421-.45752-.10425-.84644-.12537-1.18408A6.55743,6.55743,0,0,1,12.21756,63.28174ZM3.34879,70.37012q2.96484.00732,5.91247.01465l-.001.147c8.43519.05322,16.68848.10547,24.34266.15381,7.10546.01465,13.65478.02807,19.26086.03955,9.37659-.02344,16.0968-.1355,18.38428-.39258.051-.001.10705-.00171.15759-.00244q.27466-.00586.53833-.01172l.05566-.01245c.04517-.009.08814-.01807.12928-.02637l.04406.17163q.02784.668.04981,1.19556c.03491.79028.07385,1.37475.11694,1.76806.33179,3.03077.58325,4.99878.778,6.06617-1.61292-.40308-6.412-.708-16.17774-.7107-18.61938-.00488-1.597.09473-28.86462.06714-7.84461-.0188-16.22766-.03906-24.76453-.05957C3.32339,75.98267,3.33609,73.17041,3.34879,70.37012Zm180.82385,28.335c-54.99573.04321-4.71741.00366-85.257.06714-29.11609-.02417-60.62659-.0503-92.3446-.07642.00695-5.20337.014-10.41138.021-15.56909,53.3634.03564,105.87671.07056,146.85925.0979,16.01929-.00879,30.28687-.02979,42.20069-.06812a11.7563,11.7563,0,0,0,1.66821.13794c.37061.01221.69727.01123.969-.00341l.8225-.0315c.80542-.03442,1.48316-.075,2.02662-.12256,15.93994-.0625,26.85437-.16186,30.89941-.31176l.47266-.06885q.0249.1626.04882.31885a1.82021,1.82021,0,0,1,.02393.24q.01172.30981.02368.61377.04761,1.21545.09155,2.33471.0923,2.239.16919,4.10156c.11866,2.4856.21387,4.48023.28711,6.01612.083,1.49585.15638,2.54834.22168,3.20239C230.74283,99.10034,216.9053,98.708,184.17264,98.70508Z"/></g></g></svg>